<?xml version="1.0" standalone="no"?>
<!DOCTYPE svg PUBLIC "-//W3C//DTD SVG 20010904//EN"
 "http://www.w3.org/TR/2001/REC-SVG-20010904/DTD/svg10.dtd">
<svg version="1.0" xmlns="http://www.w3.org/2000/svg"
 width="512.000000pt" height="512.000000pt" viewBox="0 0 512.000000 512.000000"
 preserveAspectRatio="xMidYMid meet">
<metadata>
Created by potrace 1.11, written by Peter Selinger 2001-2013
</metadata>
<g transform="translate(0.000000,512.000000) scale(0.100000,-0.100000)"
fill="#000000" stroke="none">
<path d="M2270 4702 c0 -94 -4 -142 -12 -150 -8 -8 -56 -12 -150 -12 l-138 0
-2 -292 -3 -293 -142 -3 -143 -3 0 -144 0 -145 -740 0 -740 0 0 -305 0 -305
138 0 c94 0 142 -4 150 -12 8 -8 12 -56 12 -150 l0 -137 143 -3 142 -3 5 -155
5 -155 148 -3 147 -3 0 -284 0 -285 -150 0 -150 0 -2 -442 -3 -443 -142 -3
-143 -3 0 -304 0 -305 450 0 450 0 0 139 c0 106 3 141 14 150 10 8 94 11 286
11 169 -1 277 3 283 9 5 5 10 70 11 143 l1 133 145 5 145 5 3 148 3 147 294 0
294 0 3 -147 3 -148 145 -5 145 -5 3 -119 c2 -89 -1 -121 -10 -127 -10 -6 -6
-15 15 -36 15 -15 27 -22 27 -15 0 17 531 17 548 0 8 -8 12 -56 12 -150 l0
-138 450 0 450 0 0 305 0 304 -142 3 -143 3 -3 443 -2 442 -150 0 -150 0 0
285 0 284 148 3 147 3 5 155 5 155 143 3 142 3 0 137 c0 94 4 142 12 150 8 8
51 12 129 12 65 0 120 3 122 8 3 4 8 141 12 305 l7 297 -731 0 -731 0 0 145 0
144 -142 3 -143 3 -3 293 -2 292 -138 0 c-94 0 -142 4 -150 12 -8 8 -12 56
-12 150 l0 138 -315 0 -315 0 0 -138z"/>
</g>
</svg>
